Simulation
nRows=31
nColumns=15
endheader
time  TH_x TH_y TH_z SC_y  SC_z  SC_x  AC_y  AC_z  AC_x  GH_y  GH_z  GH_yy  EL_x  PS_y
0.0  0.000000  0.000000  0.000000  -18.7420841845824  -5.875280461766269  -4.98046712091675  61.93517663429283  0.6434521289254653  3.5602027328344747  -45.051825504995705  11.93717193410202  74.35288246352005  20.1774702903688  120.000000
0.04016479400749064  0.000000  0.000000  0.000000  -18.80600424087693  -5.846028972137283  -5.031976253731058  61.91680742877465  0.733883567019793  3.569630432460088  -44.589044449347455  12.03945872452392  73.83349533565737  20.09186153168699  120.000000
0.08032958801498127  0.000000  0.000000  0.000000  -18.995319345449293  -5.747235136753008  -5.1657872433350525  61.854503038492254  0.9893485633444508  3.588888422699753  -43.28477876133485  12.35033779826001  72.35171222114464  19.844533610785582  120.000000
0.12049438202247191  0.000000  0.000000  0.000000  -19.31319773785901  -5.567192643658248  -5.353305933114957  61.730818021093015  1.382920979181317  3.607362940827041  -41.362078176941786  12.874841315049421  70.11616493117836  19.460363975852626  120.000000
0.16065917602996255  0.000000  0.000000  0.000000  -19.76931463553769  -5.300829909547516  -5.583573918538953  61.53102891518422  1.889044634327676  3.6282359941120883  -39.08536040998187  13.607341599755243  67.37892164298013  18.96846839859412  120.000000
0.20082397003745317  0.000000  0.000000  0.000000  -20.37010853816725  -4.943624219960269  -5.850153381661114  61.250579605571865  2.482628696517049  3.6598266708331533  -36.686871225073055  14.531993544789445  64.36554472653549  18.398404449140017  120.000000
0.24098876404494382  0.000000  0.000000  0.000000  -21.117105711785637  -4.496520801659157  -6.144925701088557  60.89375977444628  3.143859300401198  3.7105137617150996  -34.3380259577279  15.628338625769684  61.24709150543623  17.776551962630258  120.000000
0.28115355805243447  0.000000  0.000000  0.000000  -22.00539015953601  -3.961018628065377  -6.456242901164384  60.47288262837042  3.8577277671492873  3.7887945391309374  -32.13819418123365  16.873066173880755  58.12729158669306  17.124231694198638  120.000000
0.3213183520599251  0.000000  0.000000  0.000000  -23.02382294892301  -3.3384375008336318  -6.768112557029571  60.00412883996281  4.614073165295488  3.9017879695860915  -30.139680287899726  18.243678680603935  55.06778816326798  16.459805449826874  120.000000
0.3614831460674157  0.000000  0.000000  0.000000  -24.156394522504566  -2.630331269511736  -7.0610582599855025  59.5044100009973  5.4063846106346825  4.054859726739297  -28.36802217821039  19.719767404063507  52.106628091803046  15.796998117469249  120.000000
0.40164794007490634  0.000000  0.000000  0.000000  -25.383466547479816  -1.8386083139222593  -7.313149986985  58.989939076599754  6.230761602864759  4.25136757032276  -26.83423113424568  21.282998313088353  49.27068024164791  15.147101429982055  120.000000
0.441812734082397  0.000000  0.000000  0.000000  -26.682181887821077  -0.9665340689164427  -7.501216906476397  58.47525913538381  7.084828322590471  4.493244282047477  -25.542271184598345  22.916490470872166  46.582608260846165  14.51885189473816  120.000000
0.48197752808988764  0.000000  0.000000  0.000000  -28.02785315799691  -0.019506940487675886  -7.601886817759066  57.97312610554089  7.966727718898102  4.78096563420977  -24.490940388194712  24.603868723396467  44.06256417471169  13.919062281207392  120.000000
0.5221423220973783  0.000000  0.000000  0.000000  -29.39498405608445  0.9943995220402634  -7.59275701612186  57.494030941096355  8.87431254105997  5.1141239764805615  -23.676322979850664  26.328627610897684  41.73015616472917  13.352638297836041  120.000000
0.5623071161048689  0.000000  0.000000  0.000000  -30.75859976642007  2.0637926274143634  -7.453723120481895  57.046129913749034  9.804787763850673  5.491334602551838  -23.09133148433471  28.073501414147398  39.60292567612568  12.822433567651291  120.000000
0.6024719101123596  0.000000  0.000000  0.000000  -32.095194914030536  3.1733716129523426  -7.168550407882113  56.63579062843631  10.754322918654058  5.910892914296278  -22.724811999719275  29.820308792304576  37.69443378416725  12.329384550483603  120.000000
0.6426367041198502  0.000000  0.000000  0.000000  -33.38335780541992  4.303273667094338  -6.72590575878479  56.26845555323643  11.717618686354703  6.371066891718162  -22.55954655846738  31.550051028451332  36.011052158558684  11.872437447552947  120.000000
0.6828014981273408  0.000000  0.000000  0.000000  -34.60537146946475  5.430099730304585  -6.119171279859733  55.949152619948734  12.68735453719187  6.869892231972003  -22.57365827949526  33.24488952712729  34.55225103445333  11.448366215549866  120.000000
0.7229662921348314  0.000000  0.000000  0.000000  -35.74906738051141  6.53015244274098  -5.346962883679691  55.68165883005439  13.654798460048598  7.404569857504383  -22.742378804951766  34.890715056334805  33.31110395419673  11.050992896935439  120.000000
0.7631310861423221  0.000000  0.000000  0.000000  -36.809016705453836  7.581906294582144  -4.412011148846068  55.46812715089343  14.608815300408452  7.9703283144536465  -23.037713213318163  36.4792269277287  32.273356044554546  10.671967226375227  120.000000
0.8032958801498127  0.000000  0.000000  0.000000  -37.78532934059599  8.567090809098529  -3.320612584325197  55.309311317769065  15.536031671834783  8.561784932979947  -23.428273938167543  38.0073210501361  31.417926307107383  10.301976760098354  120.000000
0.8434606741573034  0.000000  0.000000  0.000000  -38.68098652113463  9.47116952693662  -2.0833736476078655  55.20459086618562  16.422658138993537  9.173206548369038  -23.880558592042387  39.47589344260403  30.718794435336136  9.932653856386866  120.000000
0.883625468164794  0.000000  0.000000  0.000000  -39.50023208074306  10.2841431650112  -0.7149542434680248  55.15093806079463  17.2556874957584  9.799128028207228  -24.362202704214198  40.88868707384474  30.149073263421666  9.558214016624884  120.000000
0.9237902621722847  0.000000  0.000000  0.000000  -40.24745372791873  11.000477856527507  0.7657922950069448  55.14222290605099  18.023862155442032  10.434646982004237  -24.844546033043407  42.25104196957263  29.684007236199047  9.176592574215316  120.000000
0.9639550561797753  0.000000  0.000000  0.000000  -40.926390576415756  11.618613489544915  2.335886395377683  55.16912151381564  18.717988820202063  11.075410364502266  -25.304801494753992  43.568682213947376  29.30380076848713  8.790395001077396  120.000000
1.004119850187266  0.000000  0.000000  0.000000  -41.54033701132343  12.140522730313807  3.968324019495495  55.219836198926856  19.330848583712655  11.71730146159233  -25.726981415891032  44.84654414737736  28.994638209989297  8.406614878477061  120.000000
1.0442846441947566  0.000000  0.000000  0.000000  -42.09253328651892  12.571073071514428  5.632692753608653  55.281607388271404  19.85697064581585  12.355535744011378  -26.10187452852342  46.0878690515596  28.748555565289102  8.035667925133401  120.000000
1.0844494382022472  0.000000  0.000000  0.000000  -42.58649030618825  12.917645129087417  7.296201018539229  55.34277302218104  20.29243955350089  12.983838730093506  -26.425956128802447  47.29324427537062  28.562048416889212  7.689898712096577  120.000000
1.1246142322097379  0.000000  0.000000  0.000000  -43.02591708248659  13.189685477471862  8.925047909750461  55.39472849439253  20.635036240227976  13.593650716254654  -26.699761798202477  48.46000381267617  28.434020296220794  7.381993823090043  120.000000
1.1647790262172284  0.000000  0.000000  0.000000  -43.41471428271753  13.398395805454538  10.486129024534314  55.433012160584674  20.88459267445433  14.173823092113132  -26.926565842990055  49.582039021103924  28.364031126031524  7.123403745337623  120.000000
1.2049438202247191  0.000000  0.000000  0.000000  -43.757126009721866  13.55620181216535  11.94890361096436  55.457473851726945  21.043415878595646  14.710729444146219  -27.11122985210461  50.65029001503673  28.350597281121928  6.922931769144312  120.000000
